<svg width="226" height="227" viewBox="0 0 226 227" fill="none" xmlns="http://www.w3.org/2000/svg">
<path d="M117.471 10.8175C115.005 13.2944 111.017 13.2944 108.551 10.8175C106.085 8.34061 106.085 4.33453 108.551 1.85765C111.017 -0.619218 115.005 -0.619218 117.471 1.85765C119.915 4.31299 119.915 8.34061 117.471 10.8175ZM144.146 28.6294C141.68 26.1525 137.692 26.1525 135.226 28.6294C132.76 31.1063 132.76 35.1123 135.226 37.5892C137.692 40.0661 141.68 40.0661 144.146 37.5892C146.591 35.1339 146.591 31.1063 144.146 28.6294ZM170.8 55.4227C168.334 52.9458 164.346 52.9458 161.88 55.4227C159.414 57.8996 159.414 61.9057 161.88 64.3825C164.346 66.8594 168.334 66.8594 170.8 64.3825C173.266 61.9057 173.266 57.8996 170.8 55.4227ZM197.475 82.2159C195.009 79.7391 191.021 79.7391 188.555 82.2159C186.089 84.6928 186.089 88.699 188.555 91.1758C191.021 93.6527 195.009 93.6527 197.475 91.1758C199.941 88.699 199.941 84.6928 197.475 82.2159ZM224.151 109.009C221.685 106.532 217.696 106.532 215.23 109.009C212.764 111.486 212.764 115.492 215.23 117.969C217.696 120.446 221.685 120.446 224.151 117.969C226.616 115.492 226.616 111.486 224.151 109.009ZM90.7956 28.6294C88.3297 26.1525 84.3412 26.1525 81.8753 28.6294C79.4093 31.1063 79.4093 35.1123 81.8753 37.5892C84.3412 40.0661 88.3297 40.0661 90.7956 37.5892C93.2616 35.1339 93.2616 31.1063 90.7956 28.6294ZM117.471 55.4227C115.005 52.9458 111.017 52.9458 108.551 55.4227C106.085 57.8996 106.085 61.9057 108.551 64.3825C111.017 66.8594 115.005 66.8594 117.471 64.3825C119.915 61.9057 119.915 57.8996 117.471 55.4227ZM144.146 82.2159C141.68 79.7391 137.692 79.7391 135.226 82.2159C132.76 84.6928 132.76 88.699 135.226 91.1758C137.692 93.6527 141.68 93.6527 144.146 91.1758C146.591 88.699 146.591 84.6928 144.146 82.2159ZM170.8 109.009C168.334 106.532 164.346 106.532 161.88 109.009C159.414 111.486 159.414 115.492 161.88 117.969C164.346 120.446 168.334 120.446 170.8 117.969C173.266 115.492 173.266 111.486 170.8 109.009ZM197.475 135.803C195.009 133.326 191.021 133.326 188.555 135.803C186.089 138.279 186.089 142.286 188.555 144.762C191.021 147.239 195.009 147.239 197.475 144.762C199.941 142.286 199.941 138.279 197.475 135.803ZM64.1204 55.4227C61.6544 52.9458 57.666 52.9458 55.2 55.4227C52.734 57.8996 52.734 61.9057 55.2 64.3825C57.666 66.8594 61.6544 66.8594 64.1204 64.3825C66.5863 61.9057 66.5863 57.8996 64.1204 55.4227ZM90.7956 82.2159C88.3297 79.7391 84.3412 79.7391 81.8753 82.2159C79.4093 84.6928 79.4093 88.699 81.8753 91.1758C84.3412 93.6527 88.3297 93.6527 90.7956 91.1758C93.2616 88.699 93.2616 84.6928 90.7956 82.2159ZM117.471 109.009C115.005 106.532 111.017 106.532 108.551 109.009C106.085 111.486 106.085 115.492 108.551 117.969C111.017 120.446 115.005 120.446 117.471 117.969C119.915 115.492 119.915 111.486 117.471 109.009ZM144.146 135.803C141.68 133.326 137.692 133.326 135.226 135.803C132.76 138.279 132.76 142.286 135.226 144.762C137.692 147.239 141.68 147.239 144.146 144.762C146.591 142.286 146.591 138.279 144.146 135.803ZM170.8 162.596C168.334 160.119 164.346 160.119 161.88 162.596C159.414 165.073 159.414 169.079 161.88 171.556C164.346 174.033 168.334 174.033 170.8 171.556C173.266 169.079 173.266 165.073 170.8 162.596ZM37.4451 82.2159C34.9791 79.7391 30.9907 79.7391 28.5247 82.2159C26.0588 84.6928 26.0588 88.699 28.5247 91.1758C30.9907 93.6527 34.9791 93.6527 37.4451 91.1758C39.9111 88.699 39.9111 84.6928 37.4451 82.2159ZM64.1204 109.009C61.6544 106.532 57.666 106.532 55.2 109.009C52.734 111.486 52.734 115.492 55.2 117.969C57.666 120.446 61.6544 120.446 64.1204 117.969C66.5863 115.492 66.5863 111.486 64.1204 109.009ZM90.7956 135.803C88.3297 133.326 84.3412 133.326 81.8753 135.803C79.4093 138.279 79.4093 142.286 81.8753 144.762C84.3412 147.239 88.3297 147.239 90.7956 144.762C93.2616 142.286 93.2616 138.279 90.7956 135.803ZM117.471 162.596C115.005 160.119 111.017 160.119 108.551 162.596C106.085 165.073 106.085 169.079 108.551 171.556C111.017 174.033 115.005 174.033 117.471 171.556C119.915 169.079 119.915 165.073 117.471 162.596ZM144.146 189.389C141.68 186.912 137.692 186.912 135.226 189.389C132.76 191.866 132.76 195.872 135.226 198.349C137.692 200.826 141.68 200.826 144.146 198.349C146.591 195.872 146.591 191.866 144.146 189.389ZM10.7698 109.009C8.30386 106.532 4.31543 106.532 1.84947 109.009C-0.61649 111.486 -0.61649 115.492 1.84947 117.969C4.31543 120.446 8.30386 120.446 10.7698 117.969C13.2358 115.492 13.2358 111.486 10.7698 109.009ZM37.4451 135.803C34.9791 133.326 30.9907 133.326 28.5247 135.803C26.0588 138.279 26.0588 142.286 28.5247 144.762C30.9907 147.239 34.9791 147.239 37.4451 144.762C39.9111 142.286 39.9111 138.279 37.4451 135.803ZM64.1204 162.596C61.6544 160.119 57.666 160.119 55.2 162.596C52.734 165.073 52.734 169.079 55.2 171.556C57.666 174.033 61.6544 174.033 64.1204 171.556C66.5863 169.079 66.5863 165.073 64.1204 162.596ZM90.7956 189.389C88.3297 186.912 84.3412 186.912 81.8753 189.389C79.4093 191.866 79.4093 195.872 81.8753 198.349C84.3412 200.826 88.3297 200.826 90.7956 198.349C93.2616 195.872 93.2616 191.866 90.7956 189.389ZM117.471 216.182C115.005 213.706 111.017 213.706 108.551 216.182C106.085 218.659 106.085 222.665 108.551 225.142C111.017 227.619 115.005 227.619 117.471 225.142C119.937 222.665 119.915 218.659 117.471 216.182Z" fill="#26BC58"/>
</svg>
