<svg width="390" height="25" viewBox="0 0 390 25" fill="none" xmlns="http://www.w3.org/2000/svg">
<g clip-path="url(#clip0_526_172)">
<path d="M390 3.69128C388.014 3.52349 386.194 3.52349 384.209 3.52349C382.223 3.52349 380.403 3.3557 378.417 3.18792C374.115 2.85235 369.979 2.34899 365.677 2.01342C357.569 1.34228 349.296 0.671141 341.188 0.503356C333.742 0.167785 326.131 0 318.685 0C316.699 0 314.714 0 312.894 0C305.448 0.167785 298.002 0.167785 290.556 0.33557C273.182 0.838926 255.643 1.34228 238.269 2.18121C221.226 3.02013 204.183 3.85906 187.306 4.86577C179.033 5.36913 170.594 5.87248 162.321 6.37584C153.22 7.21477 144.12 7.71812 135.185 8.38926C116.487 9.89933 97.955 11.2416 79.2575 12.7517C63.042 14.094 46.9919 15.9396 30.9419 18.2886C20.6831 19.9664 10.2588 21.8121 0 23.6577C11.748 24.4966 23.6614 24.8322 35.5749 25C43.3517 25 51.1286 24.8322 58.7399 24.6644C63.7039 24.4966 68.6678 24.1611 73.7972 23.8255C76.941 23.6577 79.9194 23.3221 82.8978 22.9866C91.0055 22.1477 99.2787 21.4765 107.387 20.6376C116.818 19.7987 126.084 18.7919 135.515 17.953C145.112 17.1141 154.875 16.2752 164.472 15.4362C173.076 14.7651 181.846 14.094 190.615 13.4228C199.054 12.7517 207.658 12.2483 216.097 11.745C224.701 11.2416 233.14 10.7383 241.744 10.2349C250.513 9.73154 259.118 9.56376 267.887 9.22819C283.772 8.55705 299.656 8.38926 315.706 8.22148C324.642 8.22148 333.411 7.88591 342.346 7.55034C351.116 7.21477 359.885 6.87919 368.49 6.37584C371.964 6.20805 375.605 6.04027 379.079 5.7047C380.734 5.53691 382.554 5.36913 384.209 5.03356C385.698 4.69799 387.187 4.19463 388.676 4.02685C389.173 3.85906 389.504 3.69128 390 3.69128Z" fill="#F6AB00"/>
</g>
<defs>
<clipPath id="clip0_526_172">
<rect width="390" height="25" fill="white"/>
</clipPath>
</defs>
</svg>
